# xmcd
#
# Track frame offsets:
#	150
#	26414
#	41258
#	69230
#	91706
#	113057
#	146831
#	174647
#	177107
#	198531
#	220687
#	239468
#	261721
#	280625
#	305292
#
# Disc length: 4477 seconds
#
# Revision: 1
# Processed by: cddbd v1.5.2PL0 Copyright (c) Steve Scherf et al.
# Submitted via: audiograbber 1.83.01
#
DISCID=ce117b0f
DTITLE=Grateful Dead - 70-06-24A Capitol Theatre, Port Chester NY
DYEAR=1900
DGENRE=
TTITLE0=Dire Wolf
TTITLE1=Don't Ease Me In
TTITLE2=Attics Of My Life
TTITLE3=Friend Of The Devil
TTITLE4=83968
TTITLE5=Candyman
TTITLE6=Uncle John's Band
TTITLE7=NRPS Intro
TTITLE8=NRPS Working Man Blues
TTITLE9=NRPS Whatcha Gonna Do
TTITLE10=NRPS Live and Let Live
TTITLE11=NRPS If You Hear Me
TTITLE12=NRPS Henry
TTITLE13=NRPS Portland Woman
TTITLE14=NRPS Dirty Business
EXTD=
EXTT0=
EXTT1=
EXTT2=
EXTT3=
EXTT4=
EXTT5=
EXTT6=
EXTT7=
EXTT8=
EXTT9=
EXTT10=
EXTT11=
EXTT12=
EXTT13=
EXTT14=
PLAYORDER=
